<svg width="32" height="32" viewBox="0 0 32 32" fill="none" xmlns="http://www.w3.org/2000/svg">
  <path d="M10.4 8.6H21.6C22.08 8.6 22.48 8.98 22.5 9.46L22.98 22.12C23.07 24.22 21.39 25.98 19.29 25.98H12.71C10.61 25.98 8.93 24.22 9.02 22.12L9.5 9.46C9.52 8.98 9.92 8.6 10.4 8.6Z" fill="#111827"/>
  <path d="M8.7 6.5H23.3C23.85 6.5 24.3 6.95 24.3 7.5C24.3 8.05 23.85 8.5 23.3 8.5H8.7C8.15 8.5 7.7 8.05 7.7 7.5C7.7 6.95 8.15 6.5 8.7 6.5Z" fill="#111827"/>
  <path d="M12.35 25.7H19.65C20.13 25.7 20.52 26.09 20.52 26.57C20.52 27.05 20.13 27.44 19.65 27.44H12.35C11.87 27.44 11.48 27.05 11.48 26.57C11.48 26.09 11.87 25.7 12.35 25.7Z" fill="#111827" opacity="0.18"/>
  <path d="M16 21.1C15.73 21.1 15.47 21 15.26 20.8L12.55 18.19C11.58 17.26 11.58 15.73 12.55 14.8C13.47 13.91 14.91 13.88 15.88 14.67L16 14.77L16.12 14.67C17.09 13.88 18.53 13.91 19.45 14.8C20.42 15.73 20.42 17.26 19.45 18.19L16.74 20.8C16.53 21 16.27 21.1 16 21.1Z" fill="#FFFFFF"/>
  <path d="M12.6 4.7C12.6 4.07 13.11 3.56 13.74 3.56H18.26C18.89 3.56 19.4 4.07 19.4 4.7V6.5H12.6V4.7Z" fill="#111827"/>
</svg>
