<svg width="32" height="32" viewBox="0 0 32 32" fill="none" xmlns="http://www.w3.org/2000/svg">
  <path d="M6.75 9.75H21.9C23.02 9.75 23.93 10.66 23.93 11.78V13.2H24.95C26.9 13.2 28.5 14.79 28.5 16.75C28.5 18.7 26.9 20.3 24.95 20.3H23.4C22.52 22.95 20.02 24.85 17.08 24.85H13.28C9.6 24.85 6.62 21.87 6.62 18.2V9.88C6.62 9.81 6.68 9.75 6.75 9.75Z" fill="#111827"/>
  <path d="M23.93 15.25V18.25H24.95C25.78 18.25 26.45 17.58 26.45 16.75C26.45 15.92 25.78 15.25 24.95 15.25H23.93Z" fill="#FFFFFF"/>
  <path d="M10.35 24.7H20.95C21.45 24.7 21.85 25.1 21.85 25.6C21.85 26.1 21.45 26.5 20.95 26.5H10.35C9.85 26.5 9.45 26.1 9.45 25.6C9.45 25.1 9.85 24.7 10.35 24.7Z" fill="#111827" opacity="0.18"/>
  <path d="M15.55 20.15C15.27 20.15 15 20.05 14.78 19.84L11.72 16.9C10.68 15.9 10.68 14.25 11.72 13.25C12.72 12.29 14.28 12.25 15.32 13.11L15.55 13.3L15.78 13.11C16.82 12.25 18.38 12.29 19.38 13.25C20.42 14.25 20.42 15.9 19.38 16.9L16.32 19.84C16.1 20.05 15.83 20.15 15.55 20.15Z" fill="#FFFFFF"/>
</svg>
